<?xml version="1.0" encoding="UTF-8" standalone="no"?>
<!-- Created with Inkscape (http://www.inkscape.org/) -->

<svg
   xmlns:osb="http://www.openswatchbook.org/uri/2009/osb"
   xmlns:dc="http://purl.org/dc/elements/1.1/"
   xmlns:cc="http://creativecommons.org/ns#"
   xmlns:rdf="http://www.w3.org/1999/02/22-rdf-syntax-ns#"
   xmlns:svg="http://www.w3.org/2000/svg"
   xmlns="http://www.w3.org/2000/svg"
   xmlns:sodipodi="http://sodipodi.sourceforge.net/DTD/sodipodi-0.dtd"
   xmlns:inkscape="http://www.inkscape.org/namespaces/inkscape"
   width="845.21252mm"
   height="193.99495mm"
   viewBox="0 0 845.21253 193.99494"
   version="1.1"
   id="svg8"
   inkscape:version="0.92.4 (5da689c313, 2019-01-14)"
   sodipodi:docname="answerry_logo_text_outline.svg">
  <defs
     id="defs2">
    <linearGradient
       id="linearGradient2341"
       osb:paint="solid">
      <stop
         style="stop-color:#007992;stop-opacity:1;"
         offset="0"
         id="stop2339" />
    </linearGradient>
  </defs>
  <sodipodi:namedview
     id="base"
     pagecolor="#ffffff"
     bordercolor="#666666"
     borderopacity="1.0"
     inkscape:pageopacity="0.0"
     inkscape:pageshadow="2"
     inkscape:zoom="0.56500692"
     inkscape:cx="1412.2323"
     inkscape:cy="-111.49183"
     inkscape:document-units="mm"
     inkscape:current-layer="layer1"
     showgrid="false"
     inkscape:snap-intersection-paths="true"
     inkscape:snap-center="true"
     inkscape:window-width="2560"
     inkscape:window-height="1377"
     inkscape:window-x="-8"
     inkscape:window-y="-8"
     inkscape:window-maximized="1"
     inkscape:snap-smooth-nodes="true"
     inkscape:snap-object-midpoints="true"
     inkscape:snap-text-baseline="true"
     inkscape:snap-bbox="true" />
  <metadata
     id="metadata5">
    <rdf:RDF>
      <cc:Work
         rdf:about="">
        <dc:format>image/svg+xml</dc:format>
        <dc:type
           rdf:resource="http://purl.org/dc/dcmitype/StillImage" />
        <dc:title />
      </cc:Work>
    </rdf:RDF>
  </metadata>
  <g
     inkscape:groupmode="layer"
     id="layer2"
     inkscape:label="Background"
     transform="translate(-19.999813,-129.88906)" />
  <g
     inkscape:label="Layer 1"
     inkscape:groupmode="layer"
     id="layer1"
     transform="translate(-19.999813,-129.88906)">
    <path
       style="fill:#000000;fill-opacity:0;stroke:#007992;stroke-width:2.96437621;stroke-linejoin:round;stroke-miterlimit:4;stroke-dasharray:none;stroke-opacity:1"
       d="m 151.02641,178.48106 a 9.9649678,9.7982392 0 0 0 -9.96481,9.79815 v 39.19316 39.19313 a 9.9649678,9.7982392 0 0 0 9.96481,9.79807 9.9649678,9.7982392 0 0 0 9.96524,-9.79807 v -0.0589 -39.13389 a 29.894904,29.394718 0 0 1 29.89471,-29.39432 29.894904,29.394718 0 0 1 29.89524,29.39432 v 39.1172 0.0758 a 9.9649678,9.7982392 0 0 0 9.96484,9.79808 9.9649678,9.7982392 0 0 0 9.96486,-9.79808 v -39.19305 a 49.824849,48.991197 0 0 0 -49.82494,-48.99129 49.824849,48.991197 0 0 0 -29.89471,9.87372 v -0.0756 a 9.9649678,9.7982392 0 0 0 -9.96524,-9.79811 z"
       id="path829"
       inkscape:connector-curvature="0" />
    <path
       style="fill:#000000;fill-opacity:0;stroke:#007992;stroke-width:2.96437621;stroke-linejoin:round;stroke-miterlimit:4;stroke-dasharray:none;stroke-opacity:1"
       d="m 614.39743,178.4811 a 9.9649678,9.7982392 0 0 0 -9.96477,9.79816 v 39.19316 39.19313 a 9.9649678,9.7982392 0 0 0 9.96477,9.79808 9.9649678,9.7982392 0 0 0 9.96549,-9.79808 v -0.0589 -39.13389 a 29.894904,29.394718 0 0 1 29.89468,-29.39432 v -5.1e-4 a 9.9649678,9.7982392 0 0 0 9.96479,-9.79833 9.9649678,9.7982392 0 0 0 -9.96479,-9.79812 9.9649678,9.7982392 0 0 0 -0.87084,0.0445 49.824849,48.991197 0 0 0 -29.02384,9.82922 v -0.0757 a 9.9649678,9.7982392 0 0 0 -9.96549,-9.79808 z"
       id="path829-5"
       inkscape:connector-curvature="0" />
    <path
       style="fill:#000000;fill-opacity:0;stroke:#007992;stroke-width:2.96437621;stroke-linejoin:round;stroke-miterlimit:4;stroke-dasharray:none;stroke-opacity:1"
       d="m 694.11726,178.4811 a 9.9649678,9.7982392 0 0 0 -9.96489,9.79816 v 39.19316 39.19313 a 9.9649678,9.7982392 0 0 0 9.96489,9.79808 9.9649678,9.7982392 0 0 0 9.96542,-9.79808 v -0.0589 -39.13389 a 29.894905,29.394719 0 0 1 29.8946,-29.39436 v -5.1e-4 a 9.9649678,9.7982392 0 0 0 9.96485,-9.79833 9.9649678,9.7982392 0 0 0 -9.96485,-9.79812 9.9649678,9.7982392 0 0 0 -0.8707,0.0445 49.82485,48.991198 0 0 0 -29.0239,9.82921 v -0.0757 a 9.9649678,9.7982392 0 0 0 -9.96542,-9.79809 z"
       id="path829-5-3"
       inkscape:connector-curvature="0" />
    <path
       style="fill:#000000;fill-opacity:0;stroke:#007992;stroke-width:2.96437621;stroke-linejoin:round;stroke-miterlimit:4;stroke-dasharray:none;stroke-opacity:1"
       d="m 355.71952,178.50055 a 9.9649678,9.7982392 0 0 0 -3.91021,0.61523 9.9649678,9.7982392 0 0 0 -5.83137,12.615 l 29.89521,78.38558 a 9.9649678,9.7982392 0 0 0 0.29855,0.6942 9.9649678,9.7982392 0 0 0 0.22055,0.41649 9.9649678,9.7982392 0 0 0 0.24405,0.44855 9.9649678,9.7982392 0 0 0 0.26163,0.39292 9.9649678,9.7982392 0 0 0 0.28978,0.42428 9.9649678,9.7982392 0 0 0 0.30093,0.36609 9.9649678,9.7982392 0 0 0 0.32748,0.38932 9.9649678,9.7982392 0 0 0 0.35019,0.34788 9.9649678,9.7982392 0 0 0 0.35375,0.3443 9.9649678,9.7982392 0 0 0 0.38146,0.31035 9.9649678,9.7982392 0 0 0 0.38986,0.30988 9.9649678,9.7982392 0 0 0 0.40079,0.26433 9.9649678,9.7982392 0 0 0 0.43198,0.27797 9.9649678,9.7982392 0 0 0 0.40687,0.21415 9.9649678,9.7982392 0 0 0 0.47474,0.24251 9.9649678,9.7982392 0 0 0 0.69882,0.29114 9.9649678,9.7982392 0 0 0 0.0858,0.0267 9.9649678,9.7982392 0 0 0 0.46744,0.14681 9.9649678,9.7982392 0 0 0 0.4805,0.14183 9.9649678,9.7982392 0 0 0 0.48148,0.1002 9.9649678,9.7982392 0 0 0 0.49949,0.0947 9.9649678,9.7982392 0 0 0 0.46645,0.0501 9.9649678,9.7982392 0 0 0 0.52534,0.047 9.9649678,9.7982392 0 0 0 0.49225,0.004 9.9649678,9.7982392 0 0 0 0.49286,-0.004 9.9649678,9.7982392 0 0 0 0.52362,-0.0464 9.9649678,9.7982392 0 0 0 0.46935,-0.0506 9.9649678,9.7982392 0 0 0 0.49638,-0.0942 9.9649678,9.7982392 0 0 0 0.48349,-0.10062 9.9649678,9.7982392 0 0 0 0.47525,-0.14031 9.9649678,9.7982392 0 0 0 0.47485,-0.14882 9.9649678,9.7982392 0 0 0 0.0837,-0.0259 9.9649678,9.7982392 0 0 0 0.69886,-0.29114 9.9649678,9.7982392 0 0 0 0.46441,-0.23689 9.9649678,9.7982392 0 0 0 0.41967,-0.22127 9.9649678,9.7982392 0 0 0 0.42068,-0.27091 9.9649678,9.7982392 0 0 0 0.40939,-0.26988 9.9649678,9.7982392 0 0 0 0.38789,-0.30785 9.9649678,9.7982392 0 0 0 0.38407,-0.3124 9.9649678,9.7982392 0 0 0 0.35638,-0.3468 9.9649678,9.7982392 0 0 0 0.34712,-0.34533 9.9649678,9.7982392 0 0 0 0.32744,-0.38934 9.9649678,9.7982392 0 0 0 0.30115,-0.36659 9.9649678,9.7982392 0 0 0 0.27867,-0.40759 9.9649678,9.7982392 0 0 0 0.27507,-0.41315 9.9649678,9.7982392 0 0 0 0.23379,-0.42935 9.9649678,9.7982392 0 0 0 0.22804,-0.43168 9.9649678,9.7982392 0 0 0 0.29933,-0.69417 l 20.56406,-53.92133 20.5647,53.92133 a 9.9649678,9.7982392 0 0 0 0.2992,0.69417 9.9649678,9.7982392 0 0 0 0.22815,0.43168 9.9649678,9.7982392 0 0 0 0.23374,0.42935 9.9649678,9.7982392 0 0 0 0.28379,0.42634 9.9649678,9.7982392 0 0 0 0.26721,0.39138 9.9649678,9.7982392 0 0 0 0.31313,0.38121 9.9649678,9.7982392 0 0 0 0.3177,0.37774 9.9649678,9.7982392 0 0 0 0.35025,0.34783 9.9649678,9.7982392 0 0 0 0.3538,0.3443 9.9649678,9.7982392 0 0 0 0.38405,0.3124 9.9649678,9.7982392 0 0 0 0.38779,0.30785 9.9649678,9.7982392 0 0 0 0.39812,0.26285 9.9649678,9.7982392 0 0 0 0.43401,0.27946 9.9649678,9.7982392 0 0 0 0.41666,0.21921 9.9649678,9.7982392 0 0 0 0.4628,0.23645 9.9649678,9.7982392 0 0 0 0.70144,0.29212 9.9649678,9.7982392 0 0 0 0.0837,0.0259 9.9649678,9.7982392 0 0 0 0.47471,0.14882 9.9649678,9.7982392 0 0 0 0.4754,0.14031 9.9649678,9.7982392 0 0 0 0.48357,0.10062 9.9649678,9.7982392 0 0 0 0.49643,0.0942 9.9649678,9.7982392 0 0 0 0.47009,0.0506 9.9649678,9.7982392 0 0 0 0.52211,0.0464 9.9649678,9.7982392 0 0 0 0.4929,0.004 9.9649678,9.7982392 0 0 0 0.49289,-0.004 9.9649678,9.7982392 0 0 0 0.52419,-0.047 9.9649678,9.7982392 0 0 0 0.46759,-0.0501 9.9649678,9.7982392 0 0 0 0.49949,-0.0947 9.9649678,9.7982392 0 0 0 0.47985,-0.1002 9.9649678,9.7982392 0 0 0 0.48517,-0.14284 9.9649678,9.7982392 0 0 0 0.46446,-0.1458 9.9649678,9.7982392 0 0 0 0.0858,-0.0267 9.9649678,9.7982392 0 0 0 0.70079,-0.29214 9.9649678,9.7982392 0 0 0 0.46287,-0.23645 9.9649678,9.7982392 0 0 0 0.41665,-0.21972 9.9649678,9.7982392 0 0 0 0.43207,-0.27746 9.9649678,9.7982392 0 0 0 0.40063,-0.26433 9.9649678,9.7982392 0 0 0 0.38989,-0.30988 9.9649678,9.7982392 0 0 0 0.3815,-0.31035 9.9649678,9.7982392 0 0 0 0.35381,-0.3443 9.9649678,9.7982392 0 0 0 0.35021,-0.34788 9.9649678,9.7982392 0 0 0 0.32755,-0.38932 9.9649678,9.7982392 0 0 0 0.30069,-0.36609 9.9649678,9.7982392 0 0 0 0.28996,-0.42428 9.9649678,9.7982392 0 0 0 0.26159,-0.39292 9.9649678,9.7982392 0 0 0 0.2358,-0.43338 9.9649678,9.7982392 0 0 0 0.23015,-0.43576 9.9649678,9.7982392 0 0 0 0.29715,-0.6901 l 29.89514,-78.38558 a 9.9649678,9.7982392 0 0 0 -5.83185,-12.615 9.9649678,9.7982392 0 0 0 -12.82905,5.73385 l -20.56475,53.92161 -20.56472,-53.92161 a 9.9649678,9.7982392 0 0 0 -0.29856,-0.6937 9.9649678,9.7982392 0 0 0 -0.22048,-0.41616 9.9649678,9.7982392 0 0 0 -0.24411,-0.44858 9.9649678,9.7982392 0 0 0 -0.26723,-0.40154 9.9649678,9.7982392 0 0 0 -0.2821,-0.41314 9.9649678,9.7982392 0 0 0 -0.31262,-0.38075 9.9649678,9.7982392 0 0 0 -0.31783,-0.37718 9.9649678,9.7982392 0 0 0 -0.35015,-0.34785 9.9649678,9.7982392 0 0 0 -0.3537,-0.34435 9.9649678,9.7982392 0 0 0 -0.38166,-0.31033 9.9649678,9.7982392 0 0 0 -0.3897,-0.3099 9.9649678,9.7982392 0 0 0 -0.41405,-0.27291 9.9649678,9.7982392 0 0 0 -0.41467,-0.26712 9.9649678,9.7982392 0 0 0 -0.43039,-0.22681 9.9649678,9.7982392 0 0 0 -0.45478,-0.2324 9.9649678,9.7982392 0 0 0 -0.69933,-0.29113 9.9649678,9.7982392 0 0 0 -0.0858,-0.0265 9.9649678,9.7982392 0 0 0 -0.46441,-0.14584 9.9649678,9.7982392 0 0 0 -0.48502,-0.14277 9.9649678,9.7982392 0 0 0 -0.47697,-0.0999 9.9649678,9.7982392 0 0 0 -0.50313,-0.0952 9.9649678,9.7982392 0 0 0 -0.46589,-0.0501 9.9649678,9.7982392 0 0 0 -0.52536,-0.047 9.9649678,9.7982392 0 0 0 -0.49281,-0.004 9.9649678,9.7982392 0 0 0 -0.49217,0.004 9.9649678,9.7982392 0 0 0 -0.52377,0.0464 9.9649678,9.7982392 0 0 0 -0.46918,0.0506 9.9649678,9.7982392 0 0 0 -0.49651,0.0941 9.9649678,9.7982392 0 0 0 -0.48351,0.10074 9.9649678,9.7982392 0 0 0 -0.47518,0.14024 9.9649678,9.7982392 0 0 0 -0.47493,0.14886 9.9649678,9.7982392 0 0 0 -0.0837,0.026 9.9649678,9.7982392 0 0 0 -0.69911,0.29112 9.9649678,9.7982392 0 0 0 -0.44498,0.22731 9.9649678,9.7982392 0 0 0 -0.44289,0.2329 9.9649678,9.7982392 0 0 0 -0.40264,0.25956 9.9649678,9.7982392 0 0 0 -0.42329,0.27948 9.9649678,9.7982392 0 0 0 -0.38776,0.30783 9.9649678,9.7982392 0 0 0 -0.38424,0.31241 9.9649678,9.7982392 0 0 0 -0.35641,0.34689 9.9649678,9.7982392 0 0 0 -0.34702,0.3453 9.9649678,9.7982392 0 0 0 -0.31774,0.37718 9.9649678,9.7982392 0 0 0 -0.31252,0.38077 9.9649678,9.7982392 0 0 0 -0.27139,0.39696 9.9649678,9.7982392 0 0 0 -0.28058,0.42178 9.9649678,9.7982392 0 0 0 -0.23382,0.42933 9.9649678,9.7982392 0 0 0 -0.2281,0.43133 9.9649678,9.7982392 0 0 0 -0.29926,0.69369 l -20.56482,53.9218 -20.56407,-53.92161 a 9.9649678,9.7982392 0 0 0 -8.91942,-6.34908 z"
       id="rect1131"
       inkscape:connector-curvature="0" />
    <path
       style="fill:#000000;fill-opacity:0;stroke:#007992;stroke-width:11.19874001;stroke-linejoin:round;stroke-miterlimit:4;stroke-dasharray:none;stroke-opacity:1"
       d="m 1051.5215,182.69531 c -3.6959,-0.0202 -7.4275,0.0218 -11.1914,0.12305 l -0.4649,0.0156 -0.4648,0.0215 c -36.9302,1.91214 -70.8576,12.61462 -97.99415,30.39258 -27.13659,17.77791 -50.41211,45.05585 -50.41211,80.9707 v 0.21484 l 0.008,0.21289 c 0.2434,21.18335 8.29652,41.40211 20.33008,55.80079 12.03353,14.39863 26.7849,23.53219 41.27149,30.27343 28.97317,13.48252 59.13989,18.63942 79.63669,23.78321 l 0.4942,0.12695 0.4941,0.10937 c 27.6217,6.13981 52.9901,14.9646 68.0996,23.85938 15.1095,8.89482 13.6069,12.93958 13.607,13.59551 0,-0.56054 -0.3111,7.43479 -15.6226,16.87715 -15.22,9.38596 -39.0587,17.48872 -61.8164,20.15234 -29.9445,2.31152 -50.5305,1.49183 -84.72267,-28.08789 l -0.0352,0.041 c -6.80855,-5.69719 -15.45621,-8.82713 -24.39648,-8.83007 -20.80053,4e-4 -37.6624,16.5807 -37.66211,37.0332 0.004,10.85834 4.85414,21.16792 13.26758,28.20117 l -0.041,0.0469 c 48.80855,42.22435 100.62458,49.15109 140.35938,46.01953 l 0.6485,-0.0527 0.6582,-0.0723 c 33.3574,-3.80977 65.8223,-14.1448 92.9453,-30.8711 27.1229,-16.7263 53.1484,-42.70763 53.1484,-80.30078 0,-36.37761 -26.0263,-62.56153 -52.4472,-78.11523 -26.1943,-15.4203 -57.0217,-25.07228 -88.959,-32.21875 -23.9925,-6.01636 -49.943,-11.4811 -66.14264,-19.01953 -8.11797,-3.77764 -13.22244,-7.76063 -15.47266,-10.45313 -2.17531,-2.60285 -2.81899,-3.63093 -2.91601,-8.40039 0.0302,-1.19414 2.64326,-9.26837 16.60937,-18.41797 13.95953,-9.14528 36.34204,-16.89092 60.46484,-18.22461 46.5497,-1.17134 70.3295,8.90507 81.4161,21.88282 7.1019,9.32444 18.252,14.81955 30.0996,14.83398 20.8013,6.3e-4 37.6643,-16.57997 37.664,-37.0332 -0.018,-8.97785 -3.3525,-17.64354 -9.3828,-24.38477 -29.2309,-35.83679 -76.236,-49.8052 -131.0781,-50.10547 z"
       transform="matrix(0.26458333,0,0,0.26458333,19.999813,129.88906)"
       id="path1185"
       inkscape:connector-curvature="0"
       sodipodi:nodetypes="cccccsccsccccccccccccccccccssccccsccccccc" />
    <path
       id="path2315"
       style="opacity:1;fill:#000000;fill-opacity:0;fill-rule:nonzero;stroke:#007992;stroke-width:2.96437621;stroke-linecap:butt;stroke-linejoin:miter;stroke-miterlimit:4;stroke-dasharray:none;stroke-dashoffset:0;stroke-opacity:1;paint-order:stroke fill markers"
       d="m 121.13188,266.66592 a 9.9379883,9.7717018 0 0 1 -9.93799,9.77171 9.9379883,9.7717018 0 0 1 -9.93798,-9.77171 9.9379883,9.7717018 0 0 1 9.93798,-9.7717 9.9379883,9.7717018 0 0 1 9.93799,9.7717 z M 71.306894,178.48106 a 49.824849,48.991197 0 0 0 -49.824896,48.99129 49.824849,48.991197 0 0 0 49.824896,48.99122 49.824849,48.991197 0 0 0 29.895106,-9.87402 v 0.0516 h 0.001 a 9.9649678,9.7982392 0 0 0 -0.001,0.0241 9.9649678,9.7982392 0 0 0 9.9649,9.79806 9.9649678,9.7982392 0 0 0 9.96497,-9.79806 9.9649678,9.7982392 0 0 0 -0.001,-0.0241 h 0.001 v -39.1689 A 49.824849,48.991197 0 0 0 71.306894,178.48097 Z m 0,19.59647 A 29.894904,29.394718 0 0 1 101.202,227.47235 29.894904,29.394718 0 0 1 71.306894,256.8669 29.894904,29.394718 0 0 1 41.412263,227.47235 29.894904,29.394718 0 0 1 71.306894,198.07753 Z"
       inkscape:connector-curvature="0" />
    <path
       id="path2315-7"
       style="opacity:1;fill:#000000;fill-opacity:0;fill-rule:nonzero;stroke:#007992;stroke-width:2.96437621;stroke-linecap:butt;stroke-linejoin:miter;stroke-miterlimit:4;stroke-dasharray:none;stroke-dashoffset:0;stroke-opacity:1;paint-order:stroke fill markers"
       d="m 863.70673,188.25337 a 9.9379892,9.7717028 0 0 1 -9.93799,9.7717 9.9379892,9.7717028 0 0 1 -9.93799,-9.7717 9.9379892,9.7717028 0 0 1 9.93799,-9.7717 9.9379892,9.7717028 0 0 1 9.93799,9.7717 z m -99.94844,-9.77141 a 9.9649678,9.7982392 0 0 0 -4.76327,1.25264 9.9649678,9.7982392 0 0 0 -3.81276,13.34059 l 42.21082,73.95935 -23.59673,41.34554 0.0315,0.0153 a 9.9649678,9.7982392 0 0 0 -0.97939,4.20772 9.9649678,9.7982392 0 0 0 9.96485,9.79865 9.9649678,9.7982392 0 0 0 8.87578,-5.36575 l 0.0169,0.008 17.11498,-29.98748 11.4264,-20.02102 9.89734,-17.34153 32.31393,-56.61831 a 9.9649678,9.7982392 0 0 0 -3.81325,-13.34055 9.9649678,9.7982392 0 0 0 -13.56698,3.75006 l -36.25837,63.52847 -36.25791,-63.52882 a 9.9649678,9.7982392 0 0 0 -8.80365,-5.00272 z"
       inkscape:connector-curvature="0" />
    <path
       id="path2315-7-6"
       style="opacity:1;fill:#000000;fill-opacity:0;fill-rule:nonzero;stroke:#007992;stroke-width:2.96437621;stroke-linecap:butt;stroke-linejoin:miter;stroke-miterlimit:4;stroke-dasharray:none;stroke-dashoffset:0;stroke-opacity:1;paint-order:stroke fill markers"
       d="m 572.59375,259.42834 a 9.9379892,9.7717028 0 0 1 -9.93799,9.77171 9.9379892,9.7717028 0 0 1 -9.93799,-9.77171 9.9379892,9.7717028 0 0 1 9.93799,-9.7717 9.9379892,9.7717028 0 0 1 9.93799,9.7717 z m -32.93334,-80.94723 c -27.51753,-2e-5 -49.8249,21.93421 -49.82489,48.99131 -10e-6,27.05698 22.30736,48.99124 49.82489,48.99121 9.9868,-0.003 19.74238,-2.95582 28.00118,-8.47713 v 0 c 3.08378,-1.74633 4.95383,-5.03236 4.95891,-8.53173 -5e-5,-5.41144 -4.46138,-9.79807 -9.96476,-9.79813 -1.7492,0.004 -3.46645,0.46107 -4.97911,1.32456 v 0 c -5.17456,3.85205 -11.52607,5.87109 -18.01622,5.88625 -12.65665,-0.0143 -23.93284,-7.86357 -28.15147,-19.597 h 38.11688 18.18201 c 6.80967,-0.43934 12.45856,-0.9246 15.54183,-3.84244 2.20413,-1.73144 3.66786,-4.44079 4.26899,-8.30696 3e-5,-27.05708 -20.4407,-46.63995 -47.95824,-46.63994 z m 0,19.59699 c 12.65656,0.0143 23.93257,7.86327 28.15152,19.59622 h -56.29836 c 4.21825,-11.73139 15.49201,-19.58027 28.14684,-19.59622 z"
       inkscape:connector-curvature="0" />
  </g>
</svg>
